<?xml version="1.0" encoding="UTF-8"?>
<svg width="23px" height="23px" viewBox="0 0 23 23" version="1.1" xmlns="http://www.w3.org/2000/svg" xmlns:xlink="http://www.w3.org/1999/xlink">
    <!-- Generator: Sketch 42 (36781) - http://www.bohemiancoding.com/sketch -->
    <title>avslått hover</title>
    <desc>Created with Sketch.</desc>
    <defs></defs>
    <g id="Symbols" stroke="none" stroke-width="1" fill="none" fill-rule="evenodd">
        <g id="avslått-hover" fill="#BA3A26">
            <path d="M11.4989782,0 C5.16999022,0 0.0119999773,5.148 -4.27078505e-11,11.477 C-0.00599998869,14.549 1.18399776,17.439 3.35199366,19.616 C5.51998956,21.792 8.4059841,22.994 11.4779783,23 L11.4999782,23 C17.8279663,23 22.9869565,17.851 22.9999565,11.521 C23.0119565,5.181 17.8629662,0.012 11.4989782,0 Z M16.0879696,15.398 C16.2819692,15.593 16.2809692,15.91 16.0859696,16.105 C15.9879698,16.203 15.86097,16.251 15.7329702,16.251 C15.6059705,16.251 15.4769707,16.202 15.3789709,16.105 L11.4969783,12.207 L7.60098562,16.089 C7.50298581,16.187 7.37498605,16.235 7.24698629,16.235 C7.11898653,16.235 6.99198677,16.186 6.89398696,16.089 C6.69898733,15.893 6.69898733,15.576 6.89498696,15.382 L10.7919796,11.5 L6.90998693,7.602 C6.7149873,7.406 6.71598729,7.09 6.91198692,6.896 C7.10698656,6.699 7.42398596,6.7 7.61898559,6.897 L11.4999782,10.794 L15.3959709,6.913 C15.5909705,6.718 15.9089699,6.718 16.1029695,6.914 C16.2979692,7.109 16.2979692,7.426 16.1019695,7.621 L12.2059769,11.503 L16.0879696,15.398 Z" id="Shape"></path>
        </g>
    </g>
</svg>