<?xml version="1.0" encoding="UTF-8"?>
<svg width="30px" height="30px" viewBox="0 0 30 30" version="1.1" xmlns="http://www.w3.org/2000/svg" xmlns:xlink="http://www.w3.org/1999/xlink">
    <!-- Generator: Sketch 42 (36781) - http://www.bohemiancoding.com/sketch -->
    <title>avslått valgt</title>
    <desc>Created with Sketch.</desc>
    <defs></defs>
    <g id="Symbols" stroke="none" stroke-width="1" fill="none" fill-rule="evenodd">
        <g id="avslått-valgt" fill="#BA3A26">
            <path d="M14.9986741,0 C6.74347238,0 0.015659016,6.71478261 6.87172029e-06,14.97 C-0.00781920043,18.9769565 1.54435178,22.7465217 4.37217251,25.586087 C7.19999325,28.4243478 10.964334,29.9921739 14.9712829,30 L14.9999785,30 C23.2538759,30 29.9829936,23.283913 29.9999501,15.0273913 C30.0156023,6.75782609 23.299528,0.0156521739 14.9986741,0 Z M20.984315,20.0843478 C21.237358,20.3386957 21.2360537,20.7521739 20.9817063,21.0065217 C20.8538805,21.1343478 20.6882286,21.1969565 20.5212724,21.1969565 C20.3556205,21.1969565 20.18736,21.1330435 20.0595341,21.0065217 L14.9960655,15.9221739 L9.91433594,20.9856522 C9.7865101,21.1134783 9.61955389,21.176087 9.45259769,21.176087 C9.28564148,21.176087 9.11998962,21.1121739 8.99216377,20.9856522 C8.73781643,20.73 8.73781643,20.3165217 8.99346812,20.0634783 L14.076502,15 L9.0130333,9.91565217 C8.75868595,9.66 8.7599903,9.24782609 9.01564199,8.99478261 C9.26998933,8.73782609 9.68346681,8.73913043 9.93781416,8.99608696 L14.9999785,14.0791304 L20.081708,9.01695652 C20.3360554,8.7626087 20.7508372,8.7626087 21.0038802,9.01826087 C21.2582275,9.2726087 21.2582275,9.68608696 21.0025758,9.94043478 L15.9208463,15.003913 L20.984315,20.0843478 Z" id="Shape"></path>
        </g>
    </g>
</svg>