<?xml version="1.0" encoding="UTF-8"?>
<svg width="30px" height="30px" viewBox="0 0 30 30" version="1.1" xmlns="http://www.w3.org/2000/svg" xmlns:xlink="http://www.w3.org/1999/xlink">
    <!-- Generator: Sketch 42 (36781) - http://www.bohemiancoding.com/sketch -->
    <title>behandle valgt</title>
    <desc>Created with Sketch.</desc>
    <defs></defs>
    <g id="Symbols" stroke="none" stroke-width="1" fill="none" fill-rule="evenodd">
        <g id="behandle-valgt" fill-rule="nonzero" fill="#FF9100">
            <g id="Filled_Version">
                <g>
                    <path d="M15.2559368,0 L14.9885393,0.00260824204 C10.9710552,0.0730307773 7.18966355,1.69666145 4.34220649,4.57485655 C1.47387938,7.47391758 -0.0665909709,11.2689098 0.00254106035,15.2621283 C0.146022635,23.5263432 6.62225914,30 14.745925,30 L15.0107137,29.9973918 C23.418734,29.8526343 30.1428023,23.005999 29.9980163,14.7391758 C29.8545348,6.47496088 23.3782983,0 15.2559368,0 Z M14.3480897,7.82472613 C14.3480897,7.46478873 14.6402704,7.17266562 15.0002787,7.17266562 C15.3589826,7.17266562 15.6524677,7.46478873 15.6524677,7.82472613 L15.6524677,16.9535733 C15.6524677,17.3135107 15.3589826,17.6056338 15.0002787,17.6056338 C14.6402704,17.6056338 14.3480897,17.3135107 14.3480897,16.9535733 L14.3480897,7.82472613 Z M15.0237575,22.8221179 L15.0002787,22.8221179 C14.2893927,22.8221179 13.7076402,22.2535211 13.6959008,21.541471 C13.682857,20.8215962 14.2567833,20.2269171 14.9767999,20.21518 C14.9846262,20.21518 14.9924524,20.2138758 15.0002787,20.2138758 C15.7111647,20.2138758 16.2916129,20.7837767 16.3046566,21.4958268 C16.3177004,22.2157016 15.7424698,22.8090767 15.0237575,22.8221179 Z" id="Shape"></path>
                </g>
            </g>
        </g>
    </g>
</svg>