<?xml version="1.0" encoding="UTF-8"?>
<svg width="23px" height="23px" viewBox="0 0 23 23" version="1.1" xmlns="http://www.w3.org/2000/svg" xmlns:xlink="http://www.w3.org/1999/xlink">
    <!-- Generator: Sketch 42 (36781) - http://www.bohemiancoding.com/sketch -->
    <title>innvilget hover</title>
    <desc>Created with Sketch.</desc>
    <defs></defs>
    <g id="Symbols" stroke="none" stroke-width="1" fill="none" fill-rule="evenodd">
        <g id="innvilget-hover" fill="#06893A">
            <g id="check-circle-selected">
                <g id="Filled_Version">
                    <path d="M11.5,0 C5.15870833,0 0,5.15966667 0,11.5 C0,17.8403333 5.15870833,23 11.5,23 C17.8403333,23 23,17.8403333 23,11.5 C23,5.15966667 17.8403333,0 11.5,0 Z M16.6184583,8.49658333 L9.43095833,15.2049167 C9.33895833,15.2902083 9.22108333,15.3333333 9.10416667,15.3333333 C8.98054167,15.3333333 8.85883333,15.286375 8.76491667,15.1934167 L6.36908333,12.7975833 C6.18220833,12.6107083 6.18220833,12.3069167 6.36908333,12.1200417 C6.55595833,11.9331667 6.85975,11.9331667 7.046625,12.1200417 L9.11470833,14.188125 L15.9639167,7.79604167 C16.1565417,7.615875 16.4603333,7.6245 16.6414583,7.81808333 C16.8225833,8.01166667 16.8120417,8.31545833 16.6184583,8.49658333 Z" id="Shape"></path>
                </g>
            </g>
        </g>
    </g>
</svg>